mtllib ./BigArena.mtl
o BigArena
v 31.9925 4 10.29746
v 30.675 6.5 12.31587
v 30.675 6.5 52.68413
v 31.9925 4 54.70254
v 29.62439 4 6.350613
v 28.52217 6.5 8.72783
v 28.52217 6.5 56.27217
v 29.62439 4 58.64939
v 24.93413 6.5 58.425
v 25.67754 4 61.01751
v 10.06587 6.5 58.425
v 9.322457 4 61.01751
v 5.3756 4 58.6494
v 6.477818 6.5 56.27218
v 4.325 6.5 52.68413
v 3.0075 4 54.70254
v 4.325 6.5 12.31588
v 3.0075 4 10.29746
v 6.477826 6.5 8.72783
v 5.375608 4 6.350613
v 10.06587 6.5 6.575001
v 9.32246 4 3.982501
v 24.93413 6.5 6.575001
v 25.67754 4 3.982501
v 35 0 8.200003
v 35.00002 0 56.8
v 39.40568 -0.5971854 58.01574
v 39.40565 -0.5971889 6.984268
v 35.16123 -0.7940609 -0.1574168
v 31.925 0 3.075003
v 28.01001 -0.4300535 -2.016682
v 26.8 0 2.861023E-06
v 31.925 0 61.925
v 35.16124 -0.7940579 65.15742
v 26.79999 0 64.99998
v 28.01 -0.430054 67.01667
v 34.085 9.593163 7.091749
v 34.085 9.593163 57.90825
v 31.37497 9.593163 2.575034
v 29.34225 10.68287 7.16741
v 36.225 8.270081 6.499003
v 36.225 8.270081 58.501
v 32.93475 8.270081 1.015255
v 31.37497 9.593163 62.42497
v 28.10897 10.34001 59.031
v 32.93475 8.270081 63.98475
v 26.85825 9.593163 65.13499
v 24.65543 10.34001 61.37046
v 27.451 8.270081 67.275
v 26.85825 9.593163 -0.1349963
v 25.48724 10.68287 4.555989
v 27.451 8.270081 -2.274996
v 8.141744 9.593163 65.135
v 10.34456 10.34001 61.37046
v 7.549001 8.270081 67.275
v 3.62502 9.593163 62.42498
v 6.891022 10.34001 59.03101
v 2.065242 8.270081 63.98476
v 0.915002 9.593163 57.90825
v -1.224998 8.270081 58.501
v 0.915002 9.593163 7.09175
v -1.224998 8.270081 6.499003
v 3.62503 9.593163 2.575034
v 5.657752 10.68287 7.16741
v 2.06525 8.270081 1.015256
v 8.141747 9.593163 -0.1349963
v 9.512757 10.68287 4.555989
v 7.549001 8.270081 -2.274996
v 8.2 0 1.907349E-06
v 3.074999 0 3.075004
v 28.66101 7.840027 -4.29168
v 36.17098 7.47602 -2.217165
v 40.63066 7.672892 5.283268
v 0 0 8.200003
v -9.536743E-06 0 56.8
v 3.074991 0 61.92501
v 8.199993 0 65.00002
v 28.66101 7.840027 69.29169
v 36.17099 7.476023 67.21716
v 40.63066 7.672895 59.71673
v 5.885485 -0.02116013 56.06677
v 29.11452 -0.02116013 56.06677
v 6.277545 -0.02116013 9.041178
v 29.11451 -0.02116013 8.933236

vt 10.29746 4
vt 12.31587 6.5
vt 52.68413 6.5
vt 54.70254 4
vt 29.62439 -6.350613
vt 28.52217 -8.72783
vt 30.675 -12.31587
vt 31.9925 -10.29746
vt 31.9925 -54.70254
vt 30.675 -52.68413
vt 28.52217 -56.27217
vt 29.62439 -58.64939
vt 24.93413 -58.425
vt 25.67754 -61.01751
vt 10.06587 -58.425
vt 9.322457 -61.01751
vt 5.3756 -58.6494
vt 6.477818 -56.27218
vt 4.325 -52.68413
vt 3.0075 -54.70254
vt -54.70254 4
vt -52.68413 6.5
vt -12.31588 6.5
vt -10.29746 4
vt 3.0075 -10.29746
vt 4.325 -12.31588
vt 6.477826 -8.72783
vt 5.375608 -6.350613
vt 10.06587 -6.575001
vt 9.32246 -3.982501
vt 24.93413 -6.575001
vt 25.67754 -3.982501
vt 35 -8.200003
vt 35.00002 -56.8
vt 39.40568 -58.01574
vt 39.40565 -6.984268
vt 35.16123 0.1574168
vt 31.925 -3.075003
vt 28.01001 2.016682
vt 26.8 -2.861023E-06
vt 31.925 -61.925
vt 35.16124 -65.15742
vt 26.79999 -64.99998
vt 28.01 -67.01667
vt -30.675 12.31587
vt -34.085 7.091749
vt -34.085 57.90825
vt -30.675 52.68413
vt -28.52217 8.72783
vt -31.37497 2.575034
vt -29.34225 7.16741
vt -36.225 6.499003
vt -36.225 58.501
vt -32.93475 1.015255
vt -31.37497 62.42497
vt -28.52217 56.27217
vt -28.10897 59.031
vt -32.93475 63.98475
vt -26.85825 65.13499
vt -24.93413 58.425
vt -24.65543 61.37046
vt -27.451 67.275
vt -24.93413 6.575001
vt -26.85825 -0.1349963
vt -25.48724 4.555989
vt -27.451 -2.274996
vt -8.141744 65.135
vt -10.06587 58.425
vt -10.34456 61.37046
vt -7.549002 67.275
vt -3.62502 62.42498
vt -6.477818 56.27218
vt -6.891022 59.03101
vt -2.065242 63.98476
vt -0.9150021 57.90825
vt -4.325 52.68413
vt 1.224998 58.501
vt -0.9150021 7.09175
vt -4.325 12.31588
vt 1.224998 6.499003
vt -3.62503 2.575034
vt -6.477826 8.72783
vt -5.657752 7.16741
vt -2.06525 1.015256
vt -8.141747 -0.1349963
vt -10.06587 6.575001
vt -9.512757 4.555989
vt -7.549002 -2.274996
vt -7.549002 8.270081
vt -8.2 0
vt -26.8 0
vt -27.451 8.270081
vt -2.06525 8.270081
vt -3.074999 0
vt -2.274996 8.270081
vt 2.861023E-06 0
vt -2.016682 -0.4300535
vt -4.29168 7.840027
vt -36.17098 -2.217165
vt -28.66101 -4.29168
vt -36.17098 7.47602
vt -28.66101 7.840027
vt -28.01001 -0.4300535
vt -35.16123 -0.7940609
vt -40.63066 5.283268
vt -5.283268 7.672892
vt 2.217165 7.47602
vt 0.1574168 -0.7940609
vt -6.984268 -0.5971889
vt 6.499003 8.270081
vt 8.200003 0
vt 3.075004 0
vt 1.015256 8.270081
vt 58.501 8.270081
vt 56.8 0
vt 63.98476 8.270081
vt 61.92501 0
vt 7.549001 8.270081
vt 2.065242 8.270081
vt 27.451 8.270081
vt 64.99998 0
vt 67.275 8.270081
vt 69.29169 7.840027
vt 67.01667 -0.430054
vt -28.66101 69.29169
vt -36.17099 67.21716
vt 28.66101 7.840027
vt 36.17099 7.476023
vt 35.16124 -0.7940578
vt 28.01 -0.430054
vt -40.63066 59.71673
vt -67.21716 7.476023
vt -59.71673 7.672895
vt -58.01574 -0.5971854
vt -65.15742 -0.7940578
vt -56.06677 -0.02116013
vt -58.6494 4
vt -5.885485 -0.02116013
vt -9.322457 4
vt -5.3756 4
vt -29.11452 56.06677
vt -25.67754 61.01751
vt -9.322457 61.01751
vt -5.885485 56.06677
vt -9.041178 -0.02116013
vt -6.277545 9.041178
vt -29.11451 8.933236
vt -6.350613 4
vt 6.277545 -0.02116013
vt 5.375608 4
vt 9.32246 4
vt -9.32246 3.982501
vt -25.67754 3.982501
vt 8.933236 -0.02116013
vt 6.350613 4
vt 29.11451 -0.02116013
vt 25.67754 4
vt 29.62439 4
vt 56.06677 -0.02116013
vt 58.64939 4
vt -29.11452 -0.02116013
vt -29.62439 4
vt -25.67754 4

vn -0.8846685 -0.4662206 0
vn -0.6477993 -0.6551974 0.3886804
vn -0.6477994 -0.6551975 -0.3886801
vn -0.3562081 -0.7215686 -0.5936788
vn 0 -0.7198323 -0.6941481
vn 0.6478013 -0.6551967 -0.3886782
vn 0.8846686 -0.4662204 0
vn 0.6478 -0.6551971 0.3886797
vn 0.3562075 -0.7215688 0.5936789
vn 0 -0.719832 0.6941484
vn -0.3562076 -0.7215688 0.5936789
vn 0.3562059 -0.7215693 -0.5936793
vn -0.134322 -0.9909378 1.273749E-07
vn -0.1510232 -0.9843684 0.09061386
vn -0.1087961 -0.9898028 0.09194487
vn -0.09254533 -0.9836893 0.1542423
vn -0.08963579 -0.9842989 0.1520566
vn -0.1152397 -0.9909283 -0.06914414
vn -0.1346498 -0.9850796 -0.1071803
vn -0.09063908 -0.9843594 -0.1510661
vn -0.09049217 -0.9836864 -0.1554738
vn -0.6718594 0.7406786 0
vn -0.4139249 0.8757773 0.2483552
vn 0.2199685 0.9665375 -0.1319812
vn 0.5258719 0.8505638 0
vn 0.4509314 0.8505637 -0.2705591
vn -0.4139253 0.8757771 -0.248355
vn 0.1389888 0.9867764 0.08339319
vn 0.4509312 0.8505641 0.2705584
vn -0.2144979 0.908948 -0.3574969
vn 0.08909422 0.9873015 0.131522
vn 0.08683818 0.9856532 0.1447305
vn 0.2705586 0.8505641 0.450931
vn -0.2144982 0.9089481 0.3574968
vn 0.1155544 0.9744517 -0.1925906
vn 0.1207606 0.9765436 -0.1782679
vn 0.270559 0.8505638 -0.4509314
vn -1.706494E-07 0.9081528 -0.4186389
vn 7.932361E-08 0.9808832 0.1945975
vn 0 0.8505646 0.5258706
vn 0.2144972 0.9089482 -0.357497
vn -0.09485544 0.9855936 0.1400274
vn -0.08261631 0.9870232 0.1376945
vn -0.270558 0.8505637 0.4509321
vn 0.4139262 0.875777 -0.2483541
vn -0.138989 0.9867764 0.08339287
vn -0.4509322 0.8505638 0.2705575
vn 0.6718594 0.7406787 0
vn -0.5258719 0.8505638 0
vn 0.4139251 0.8757772 0.2483549
vn -0.2199686 0.9665375 -0.1319811
vn -0.4509315 0.8505638 -0.2705588
vn 0.2144981 0.9089481 0.3574968
vn -0.109899 0.9769201 -0.1831649
vn -0.127894 0.9736521 -0.1887984
vn -0.2705589 0.8505638 -0.4509314
vn 0 0.9081529 0.4186387
vn 0 0.9740639 -0.2262731
vn 0 0.8505638 -0.5258719
vn 0 -0.2652353 -0.9641837
vn -0.4959037 -0.2663978 -0.8265057
vn -0.8619135 -0.07029007 -0.5021597
vn 0.09063982 0.9843594 -0.1510663
vn 0.09060735 0.9836868 -0.1554047
vn 0.2435869 -0.275025 -0.9300681
vn 0.2303738 -0.261569 -0.9372884
vn 0.1152405 0.9909282 -0.06914435
vn 0.1354386 0.9850576 -0.1063862
vn 0.8399915 -0.225479 -0.4935317
vn 0.8401483 -0.2258655 -0.4930879
vn -0.8351535 -0.2267715 -0.501092
vn -0.989207 -0.1465254 -1.941114E-07
vn -0.8351539 -0.2267716 0.5010914
vn -0.4959036 -0.2663964 0.8265062
vn 0 -0.2652372 0.9641832
vn -0.861914 -0.07029068 0.5021588
vn 0.09254541 0.9836893 0.1542424
vn 0.08969551 0.9843026 0.151997
vn 0.2450986 -0.2623782 0.9333191
vn 0.2287996 -0.2749039 0.9338515
vn 0.1510227 0.9843685 0.09061349
vn 0.1091051 0.9898694 0.09085489
vn 0.8399114 -0.2259073 0.4934721
vn 0.8402318 -0.225414 0.493152
vn 0.134322 0.9909378 -7.885821E-08
vn 0.9892072 -0.1465236 -5.905526E-08
vn 0.7851179 0.402101 -0.4710675
vn 0.4380582 0.5244601 -0.7301005
vn 0 0.7762145 -0.6304688
vn 0.8120782 0.5835094 0.006770439
vn 0.7758446 0.6309241 0
vn 0 1 0
vn 0.7555894 0.4728164 0.4533533
vn 0.4236396 0.5674511 0.7060657
vn 0.002946304 0.7819431 0.6233428
vn 0 0.7762147 0.6304687
vn -0.7851163 0.4021005 0.4710708
vn -0.4380605 0.5244583 0.7301003
vn -0.8131847 0.5820057 0
vn -0.7851169 0.4020996 -0.4710706
vn -0.4380614 0.5244574 -0.7301005

usemtl Stadium_Gray
f 27/35/13 26/34/13 25/33/13
f 28/36/13 27/35/13 25/33/13
f 25/33/14 30/38/14 29/37/14
f 28/36/15 25/33/15 29/37/15
f 30/38/16 32/40/16 31/39/16
f 29/37/17 30/38/17 31/39/17
f 33/41/18 26/34/18 27/35/18
f 34/42/19 33/41/19 27/35/19
f 35/43/20 33/41/20 34/42/20
f 36/44/21 35/43/21 34/42/21
f 40/51/24 37/46/24 39/50/24
f 38/47/25 42/53/25 41/52/25
f 37/46/25 38/47/25 41/52/25
f 43/54/26 39/50/26 37/46/26
f 41/52/26 43/54/26 37/46/26
f 45/57/28 44/55/28 38/47/28
f 44/55/29 46/58/29 42/53/29
f 38/47/29 44/55/29 42/53/29
f 44/55/31 45/57/31 48/61/31
f 47/59/32 44/55/32 48/61/32
f 47/59/33 49/62/33 46/58/33
f 44/55/33 47/59/33 46/58/33
f 39/50/35 50/64/35 51/65/35
f 40/51/36 39/50/36 51/65/36
f 50/64/37 39/50/37 43/54/37
f 52/66/37 50/64/37 43/54/37
f 53/67/39 47/59/39 48/61/39
f 54/69/39 53/67/39 48/61/39
f 55/70/40 49/62/40 47/59/40
f 53/67/40 55/70/40 47/59/40
f 53/67/42 54/69/42 57/73/42
f 56/71/43 53/67/43 57/73/43
f 58/74/44 55/70/44 53/67/44
f 56/71/44 58/74/44 53/67/44
f 59/75/46 56/71/46 57/73/46
f 59/75/47 60/77/47 58/74/47
f 56/71/47 59/75/47 58/74/47
f 60/77/49 59/75/49 61/78/49
f 62/80/49 60/77/49 61/78/49
f 64/83/51 63/81/51 61/78/51
f 62/80/52 61/78/52 63/81/52
f 65/84/52 62/80/52 63/81/52
f 66/85/54 63/81/54 64/83/54
f 67/87/55 66/85/55 64/83/55
f 63/81/56 66/85/56 68/88/56
f 65/84/56 63/81/56 68/88/56
f 51/65/58 50/64/58 66/85/58
f 67/87/58 51/65/58 66/85/58
f 66/85/59 50/64/59 52/66/59
f 68/88/59 66/85/59 52/66/59
f 32/91/60 69/90/60 68/89/60
f 52/92/60 32/91/60 68/89/60
f 69/90/61 70/94/61 65/93/61
f 68/89/61 69/90/61 65/93/61
f 31/97/62 32/96/62 52/95/62
f 71/98/62 31/97/62 52/95/62
f 52/66/63 43/54/63 72/99/63
f 71/100/64 52/66/64 72/99/64
f 31/103/65 71/102/65 72/101/65
f 29/104/66 31/103/66 72/101/66
f 43/54/67 41/52/67 73/105/67
f 72/99/68 43/54/68 73/105/68
f 29/108/69 72/107/69 73/106/69
f 28/109/70 29/108/70 73/106/70
f 70/112/71 74/111/71 62/110/71
f 65/113/71 70/112/71 62/110/71
f 60/114/72 62/110/72 74/111/72
f 75/115/72 60/114/72 74/111/72
f 75/115/73 76/117/73 58/116/73
f 60/114/73 75/115/73 58/116/73
f 76/112/74 77/111/74 55/118/74
f 58/119/74 76/112/74 55/118/74
f 49/120/75 55/118/75 77/111/75
f 35/40/75 49/120/75 77/111/75
f 78/123/76 49/122/76 35/121/76
f 36/124/76 78/123/76 35/121/76
f 46/58/77 49/62/77 78/125/77
f 79/126/78 46/58/78 78/125/78
f 34/129/79 79/128/79 78/127/79
f 36/130/80 34/129/80 78/127/80
f 42/53/81 46/58/81 79/126/81
f 80/131/82 42/53/82 79/126/82
f 27/134/83 80/133/83 79/132/83
f 34/135/84 27/134/84 79/132/84
f 73/105/85 41/52/85 42/53/85
f 80/131/85 73/105/85 42/53/85
f 73/106/86 80/133/86 27/134/86
f 28/109/86 73/106/86 27/134/86
f 84/147/92 83/146/92 81/144/92
f 82/141/92 84/147/92 81/144/92

usemtl Stadium_Red
f 16/21/87 13/137/87 81/136/87
f 13/140/88 12/139/88 81/138/88
f 12/143/89 10/142/89 82/141/89
f 81/144/89 12/143/89 82/141/89
f 16/21/90 81/136/90 83/145/90
f 18/24/91 16/21/91 83/145/91
f 20/148/93 18/24/93 83/145/93
f 22/151/94 20/150/94 83/149/94
f 22/152/95 83/146/95 84/147/95
f 24/153/96 22/152/96 84/147/96
f 1/1/97 5/155/97 84/154/97
f 5/158/98 24/157/98 84/156/98
f 4/4/99 1/1/99 84/154/99
f 82/159/99 4/4/99 84/154/99
f 8/160/100 4/4/100 82/159/100
f 10/163/101 8/162/101 82/161/101

usemtl Stadium_Black
f 3/3/1 2/2/1 1/1/1
f 4/4/1 3/3/1 1/1/1
f 2/7/2 6/6/2 5/5/2
f 1/8/2 2/7/2 5/5/2
f 7/11/3 3/10/3 4/9/3
f 8/12/3 7/11/3 4/9/3
f 9/13/4 7/11/4 8/12/4
f 10/14/4 9/13/4 8/12/4
f 11/15/5 9/13/5 10/14/5
f 12/16/5 11/15/5 10/14/5
f 15/19/6 14/18/6 13/17/6
f 16/20/6 15/19/6 13/17/6
f 17/23/7 15/22/7 16/21/7
f 18/24/7 17/23/7 16/21/7
f 19/27/8 17/26/8 18/25/8
f 20/28/8 19/27/8 18/25/8
f 21/29/9 19/27/9 20/28/9
f 22/30/9 21/29/9 20/28/9
f 23/31/10 21/29/10 22/30/10
f 24/32/10 23/31/10 22/30/10
f 6/6/11 23/31/11 24/32/11
f 5/5/11 6/6/11 24/32/11
f 14/18/12 11/15/12 12/16/12
f 13/17/12 14/18/12 12/16/12

usemtl Stadium_Blue
f 38/47/22 37/46/22 2/45/22
f 3/48/22 38/47/22 2/45/22
f 37/46/23 39/50/23 6/49/23
f 2/45/23 37/46/23 6/49/23
f 44/55/27 38/47/27 3/48/27
f 7/56/27 44/55/27 3/48/27
f 47/59/30 44/55/30 7/56/30
f 9/60/30 47/59/30 7/56/30
f 39/50/34 50/64/34 23/63/34
f 6/49/34 39/50/34 23/63/34
f 53/67/38 47/59/38 9/60/38
f 11/68/38 53/67/38 9/60/38
f 56/71/41 53/67/41 11/68/41
f 14/72/41 56/71/41 11/68/41
f 59/75/45 56/71/45 14/72/45
f 15/76/45 59/75/45 14/72/45
f 61/78/48 59/75/48 15/76/48
f 17/79/48 61/78/48 15/76/48
f 63/81/50 61/78/50 17/79/50
f 19/82/50 63/81/50 17/79/50
f 66/85/53 63/81/53 19/82/53
f 21/86/53 66/85/53 19/82/53
f 50/64/57 66/85/57 21/86/57
f 23/63/57 50/64/57 21/86/57

